M48
;DRILL file {KiCad 4.0.7-e2-6376~58~ubuntu16.04.1} date Tue Sep  5 23:07:07 2017
;FORMAT={-:-/ absolute / inch / decimal}
FMAT,2
INCH,TZ
T1C0.010
T2C0.050
%
G90
G05
M72
T1
X2.73Y-2.165
X2.73Y-2.46
X4.35Y-2.165
X4.35Y-2.45
X5.93Y-2.16
X5.93Y-2.455
X7.52Y-2.165
X7.52Y-2.445
X9.13Y-2.165
X9.13Y-2.445
X10.32Y-2.165
X10.32Y-2.455
X11.915Y-2.17
X11.915Y-2.44
X13.51Y-2.165
X13.515Y-2.455
X15.12Y-2.16
X15.12Y-2.445
X16.72Y-2.16
X16.725Y-2.45
X18.335Y-2.16
X18.34Y-2.44
X19.915Y-2.165
X19.92Y-2.445
X21.51Y-2.155
X21.51Y-2.445
X23.11Y-2.155
X23.115Y-2.445
X24.705Y-2.16
X24.705Y-2.455
X26.315Y-2.15
X26.315Y-2.45
X27.905Y-2.165
X27.905Y-2.445
X29.5Y-2.185
X29.505Y-2.445
X31.105Y-2.175
X31.105Y-2.46
X32.705Y-2.17
X32.71Y-2.45
X34.31Y-2.45
X34.315Y-2.17
X35.875Y-2.165
X35.875Y-2.46
T2
X1.05Y-2.16
X1.05Y-2.45
T0
M30
